{"title":"G.I.Joe.Retaliation.2013.TS.NEWSOURCE.XViD-FANTA","uid":8326503,"size":854944789,"categoryP":"video","categoryS":"movies","magnet":"?xt=urn:btih:cc293af96910c5780da50b17b971e668de358af0&amp;dn=G.I.Joe.Retaliation.2013.TS.NEWSOURCE.XViD-FANTA&amp;tr=udp%3A%2F%2Ftracker.openbittorrent.com%3A80&amp;tr=udp%3A%2F%2Fopen.demonii.com%3A1337&amp;tr=udp%3A%2F%2Ftracker.coppersurfer.tk%3A6969&amp;tr=udp%3A%2F%2Fexodus.desync.com%3A6969","seeders":3,"leechers":1,"uploader":"xxxlavalxxx","files":5,"time":1364811914,"description":"The G.I. Joes are not only fighting their mortal enemy Cobra; they are forced to contend with threats from within the government that jeopardize their very existence. \n\n\n\nDirector:\n Jon M. Chu \n\nWriters:\n Rhett Reese, Paul Wernick \n\nStars:\n Dwayne Johnson, D.J. Cotrona, Channing Tatum \n\n\nFormat                                   : AVI\nFormat/Info                              : Audio Video Interleave\nFormat profile                           : OpenDML\nFormat settings                          : rec\nFile size                                : 792 MiB\nDuration                                 : 1h 40mn\nOverall bit rate                         : 1 100 Kbps\nWriting application                      : AVI-Mux GUI 1.17.8.3, Feb 16 201019:42:50\n\nVideo\nID                                       : 0\nFormat                                   : MPEG-4 Visual\nFormat profile                           : Advanced Simple@L5\nFormat settings, BVOP                    : 2\nFormat settings, QPel                    : No\nFormat settings, GMC                     : No warppoints\nFormat settings, Matrix                  : Default (H.263)\nCodec ID                                 : XVID\nCodec ID/Hint                            : XviD\nDuration                                 : 1h 40mn\nBit rate                                 : 902 Kbps\nWidth                                    : 640 pixels\nHeight                                   : 272 pixels\nDisplay aspect ratio                     : 2.35:1\nFrame rate                               : 25.000 fps\nColor space                              : YUV\nChroma subsampling                       : 4:2:0\nBit depth                                : 8 bits\nScan type                                : Progressive\nCompression mode                         : Lossy\nBits/(Pixel*Frame)                       : 0.207\nStream size                              : 650 MiB (82%)\nWriting library                          : XviD 64\n\nAudio\nID                                       : 1\nFormat                                   : AC-3\nFormat/Info                              : Audio Coding 3\nMode extension                           : CM (complete main)\nFormat settings, Endianness              : Big\nCodec ID                                 : 2000\nDuration                                 : 1h 40mn\nBit rate mode                            : Constant\nBit rate                                 : 192 Kbps\nChannel(s)                               : 2 channels\nChannel positions                        : Front: L R\nSampling rate                            : 48.0 KHz\nBit depth                                : 16 bits\nCompression mode                         : Lossy\nStream size                              : 138 MiB (17%)\nAlignment                                : Aligned on interleaves\nInterleave, duration                     : 64 ms (1.60 video frames)\nInterleave, preload duration             : 192 ms\nTitle                                    : audio-jc\n\n\n\n &lt;a href=&quot;\nhttp://www.imdb.com/title/tt1583421/&quot; rel=&quot;nofollow&quot; target=&quot;_NEW&quot;&gt;\nhttp://www.imdb.com/title/tt1583421/&lt;/a&gt;\n\n\n &lt;a href=&quot;\nhttp://www.shotpix.com/images/78480278422281691024.png&quot; rel=&quot;nofollow&quot; target=&quot;_NEW&quot;&gt;\nhttp://www.shotpix.com/images/78480278422281691024.png&lt;/a&gt;\n &lt;a href=&quot;\nhttp://www.shotpix.com/images/06510894026543299820.png&quot; rel=&quot;nofollow&quot; target=&quot;_NEW&quot;&gt;\nhttp://www.shotpix.com/images/06510894026543299820.png&lt;/a&gt;","torrent":{"xt":"urn:btih:cc293af96910c5780da50b17b971e668de358af0","amp;dn":"G.I.Joe.Retaliation.2013.TS.NEWSOURCE.XViD-FANTA","amp;tr":["udp%3A%2F%2Ftracker.openbittorrent.com%3A80","udp%3A%2F%2Fopen.demonii.com%3A1337","udp%3A%2F%2Ftracker.coppersurfer.tk%3A6969","udp%3A%2F%2Fexodus.desync.com%3A6969"],"infoHash":"cc293af96910c5780da50b17b971e668de358af0","infoHashBuffer":{"type":"Buffer","data":[204,41,58,249,105,16,197,120,13,165,11,23,185,113,230,104,222,53,138,240]},"announce":[],"urlList":[]}}